<svg width="500" height="370" viewBox="0 0 500 370" xmlns="http://www.w3.org/2000/svg">
  <defs>
    <linearGradient id="coolGrad" x1="0%" y1="0%" x2="100%" y2="0%">
      <stop offset="0%" style="stop-color:#222222;stop-opacity:1" />
      <stop offset="100%" style="stop-color:#444444;stop-opacity:1" />
    </linearGradient>
  </defs>

  <rect width="100%" height="100%" fill="white"/>

  <!-- EP Logo -->
  <g fill="url(#coolGrad)">
    <path d="M140 40 L380 40 C430 40 430 140 380 140 L285 140 L285 180 L380 180 C470 180 470 40 380 40 Z" />
    <path d="M140 40 L180 80 L380 80 L380 40 Z" />
    <path d="M140 150 L180 190 L260 190 L260 150 Z" />
    <path d="M140 260 L180 300 L260 300 L260 260 Z" />
    <rect x="285" y="140" width="40" height="160" />
  </g>

  <!-- Text with gap -->
  <text x="250" y="345"
        font-family="Verdana, sans-serif"
        font-size="32"
        fill="#1a1a1a"
        text-anchor="middle"
        letter-spacing="2">
    Employers Pulse
  </text>

</svg>